<mxfile host="app.diagrams.net" agent="Mozilla/5.0 (Windows NT 10.0; Win64; x64) AppleWebKit/537.36 (KHTML, like Gecko) Chrome/136.0.0.0 Safari/537.36" version="26.1.1">
  <diagram name="Page-1" id="Ak4nC8SQXtded2Y2x4J-">
    <mxGraphModel dx="1500" dy="807" grid="1" gridSize="10" guides="1" tooltips="1" connect="1" arrows="1" fold="1" page="1" pageScale="1" pageWidth="850" pageHeight="1100" background="#FFFFFF" math="0" shadow="0">
      <root>
        <mxCell id="0" />
        <mxCell id="1" parent="0" />
        <mxCell id="H4TN52KVMqeMWF24uuQp-17" style="edgeStyle=orthogonalEdgeStyle;rounded=0;orthogonalLoop=1;jettySize=auto;html=1;exitX=1;exitY=1;exitDx=0;exitDy=0;entryX=0;entryY=0;entryDx=0;entryDy=0;" edge="1" parent="1" source="H4TN52KVMqeMWF24uuQp-3" target="H4TN52KVMqeMWF24uuQp-8">
          <mxGeometry relative="1" as="geometry" />
        </mxCell>
        <mxCell id="H4TN52KVMqeMWF24uuQp-20" style="edgeStyle=orthogonalEdgeStyle;rounded=0;orthogonalLoop=1;jettySize=auto;html=1;exitX=1;exitY=0;exitDx=0;exitDy=0;" edge="1" parent="1" source="H4TN52KVMqeMWF24uuQp-3">
          <mxGeometry relative="1" as="geometry">
            <mxPoint x="460.0000000000002" y="150" as="targetPoint" />
          </mxGeometry>
        </mxCell>
        <mxCell id="H4TN52KVMqeMWF24uuQp-3" value="&lt;font style=&quot;font-size: 15px;&quot;&gt;User&lt;/font&gt;" style="swimlane;whiteSpace=wrap;html=1;rounded=1;strokeColor=default;" vertex="1" parent="1">
          <mxGeometry x="50" y="30" width="230" height="210" as="geometry" />
        </mxCell>
        <mxCell id="H4TN52KVMqeMWF24uuQp-10" value="&lt;font style=&quot;font-size: 17px;&quot;&gt;user_id UUID&lt;/font&gt;&lt;div&gt;&lt;font style=&quot;font-size: 17px;&quot;&gt;firt_name VARCHAR&lt;/font&gt;&lt;/div&gt;&lt;div&gt;&lt;font style=&quot;font-size: 17px;&quot;&gt;last_name VARCHAR&lt;/font&gt;&lt;/div&gt;&lt;div&gt;&lt;font style=&quot;font-size: 17px;&quot;&gt;email VARCHAR&lt;/font&gt;&lt;/div&gt;&lt;div&gt;&lt;font style=&quot;font-size: 17px;&quot;&gt;password_hash VARCHAR&lt;/font&gt;&lt;/div&gt;&lt;div&gt;&lt;font style=&quot;font-size: 17px;&quot;&gt;phone_number VARCHAR&lt;/font&gt;&lt;/div&gt;&lt;div&gt;&lt;font style=&quot;font-size: 17px;&quot;&gt;role ENUM&lt;/font&gt;&lt;/div&gt;&lt;div&gt;&lt;font style=&quot;font-size: 17px;&quot;&gt;created_at TIMESTAMP&lt;/font&gt;&lt;/div&gt;" style="text;html=1;align=left;verticalAlign=middle;resizable=0;points=[];autosize=1;strokeColor=none;fillColor=none;" vertex="1" parent="H4TN52KVMqeMWF24uuQp-3">
          <mxGeometry x="15" y="20" width="230" height="180" as="geometry" />
        </mxCell>
        <mxCell id="H4TN52KVMqeMWF24uuQp-4" value="&lt;font style=&quot;font-size: 15px;&quot;&gt;Message&lt;/font&gt;" style="swimlane;whiteSpace=wrap;html=1;rounded=1;strokeColor=default;arcSize=9;" vertex="1" parent="1">
          <mxGeometry x="40" y="360" width="240" height="205" as="geometry" />
        </mxCell>
        <mxCell id="H4TN52KVMqeMWF24uuQp-11" value="&lt;font style=&quot;font-size: 17px;&quot;&gt;message_id&amp;nbsp; UUID&lt;/font&gt;&lt;div&gt;&lt;font style=&quot;font-size: 17px;&quot;&gt;sender_id UUID&lt;/font&gt;&lt;/div&gt;&lt;div&gt;&lt;font style=&quot;font-size: 17px;&quot;&gt;recipient_id UUID&lt;/font&gt;&lt;/div&gt;&lt;div&gt;&lt;font style=&quot;font-size: 17px;&quot;&gt;message_body TEXT&lt;/font&gt;&lt;/div&gt;&lt;div&gt;&lt;font style=&quot;font-size: 17px;&quot;&gt;send_at TIMESTAMP&lt;/font&gt;&lt;/div&gt;" style="text;html=1;align=left;verticalAlign=middle;whiteSpace=wrap;rounded=0;" vertex="1" parent="H4TN52KVMqeMWF24uuQp-4">
          <mxGeometry x="15" y="47.5" width="260" height="110" as="geometry" />
        </mxCell>
        <mxCell id="H4TN52KVMqeMWF24uuQp-5" value="&lt;font style=&quot;font-size: 15px;&quot;&gt;Payment&lt;/font&gt;" style="swimlane;whiteSpace=wrap;html=1;rounded=1;strokeColor=default;" vertex="1" parent="1">
          <mxGeometry x="590" y="630" width="230" height="160" as="geometry" />
        </mxCell>
        <mxCell id="H4TN52KVMqeMWF24uuQp-14" value="&lt;font style=&quot;font-size: 16px;&quot;&gt;payment_id UUID&lt;/font&gt;&lt;div&gt;&lt;font style=&quot;font-size: 16px;&quot;&gt;booking_id UUID&lt;/font&gt;&lt;/div&gt;&lt;div&gt;&lt;font style=&quot;font-size: 16px;&quot;&gt;amount DECIMAL&lt;/font&gt;&lt;/div&gt;&lt;div&gt;&lt;font style=&quot;font-size: 16px;&quot;&gt;payment_date TIMESTAMP&lt;/font&gt;&lt;/div&gt;" style="text;html=1;align=left;verticalAlign=middle;whiteSpace=wrap;rounded=0;" vertex="1" parent="H4TN52KVMqeMWF24uuQp-5">
          <mxGeometry x="15" y="23.75" width="200" height="112.5" as="geometry" />
        </mxCell>
        <mxCell id="H4TN52KVMqeMWF24uuQp-21" style="edgeStyle=orthogonalEdgeStyle;rounded=0;orthogonalLoop=1;jettySize=auto;html=1;exitX=0.5;exitY=1;exitDx=0;exitDy=0;entryX=1;entryY=0;entryDx=0;entryDy=0;" edge="1" parent="1" source="H4TN52KVMqeMWF24uuQp-6" target="H4TN52KVMqeMWF24uuQp-8">
          <mxGeometry relative="1" as="geometry" />
        </mxCell>
        <mxCell id="H4TN52KVMqeMWF24uuQp-23" style="edgeStyle=orthogonalEdgeStyle;rounded=0;orthogonalLoop=1;jettySize=auto;html=1;exitX=1;exitY=1;exitDx=0;exitDy=0;entryX=0.5;entryY=0;entryDx=0;entryDy=0;" edge="1" parent="1" source="H4TN52KVMqeMWF24uuQp-6" target="H4TN52KVMqeMWF24uuQp-7">
          <mxGeometry relative="1" as="geometry" />
        </mxCell>
        <mxCell id="H4TN52KVMqeMWF24uuQp-6" value="&lt;font style=&quot;font-size: 15px;&quot;&gt;Properties&lt;/font&gt;" style="swimlane;whiteSpace=wrap;html=1;rounded=1;strokeColor=default;" vertex="1" parent="1">
          <mxGeometry x="460" y="35" width="260" height="200" as="geometry" />
        </mxCell>
        <mxCell id="H4TN52KVMqeMWF24uuQp-12" value="&lt;font style=&quot;font-size: 17px;&quot;&gt;Property_id UUID&lt;/font&gt;&lt;div&gt;&lt;font style=&quot;font-size: 17px;&quot;&gt;host_id UUID&lt;/font&gt;&lt;/div&gt;&lt;div&gt;&lt;font style=&quot;font-size: 17px;&quot;&gt;name VARCHAR&lt;/font&gt;&lt;/div&gt;&lt;div&gt;&lt;font style=&quot;font-size: 17px;&quot;&gt;description TEXT&lt;/font&gt;&lt;/div&gt;&lt;div&gt;&lt;font style=&quot;font-size: 17px;&quot;&gt;location VARCHAR&lt;/font&gt;&lt;/div&gt;&lt;div&gt;&lt;font style=&quot;font-size: 17px;&quot;&gt;price_per_night DECIMAL&lt;/font&gt;&lt;/div&gt;&lt;div&gt;&lt;font style=&quot;font-size: 17px;&quot;&gt;created_at TIMESTAMP&lt;/font&gt;&lt;/div&gt;" style="text;html=1;align=left;verticalAlign=middle;whiteSpace=wrap;rounded=0;" vertex="1" parent="H4TN52KVMqeMWF24uuQp-6">
          <mxGeometry x="10" y="50" width="250" height="120" as="geometry" />
        </mxCell>
        <mxCell id="H4TN52KVMqeMWF24uuQp-7" value="&lt;font style=&quot;font-size: 15px;&quot;&gt;Review&lt;/font&gt;" style="swimlane;whiteSpace=wrap;html=1;rounded=1;strokeColor=default;startSize=23;" vertex="1" parent="1">
          <mxGeometry x="610" y="350" width="230" height="180" as="geometry" />
        </mxCell>
        <mxCell id="H4TN52KVMqeMWF24uuQp-13" value="&lt;font style=&quot;font-size: 17px;&quot;&gt;review_id UUID&lt;/font&gt;&lt;div&gt;&lt;font style=&quot;font-size: 17px;&quot;&gt;property_id UUID&lt;/font&gt;&lt;/div&gt;&lt;div&gt;&lt;font style=&quot;font-size: 17px;&quot;&gt;user_id UUID&lt;/font&gt;&lt;/div&gt;&lt;div&gt;&lt;font style=&quot;font-size: 17px;&quot;&gt;rating DECIMAL&lt;/font&gt;&lt;/div&gt;&lt;div&gt;&lt;font style=&quot;font-size: 17px;&quot;&gt;payment_date TIMESTAMP&lt;/font&gt;&lt;/div&gt;" style="text;html=1;align=left;verticalAlign=middle;whiteSpace=wrap;rounded=0;" vertex="1" parent="H4TN52KVMqeMWF24uuQp-7">
          <mxGeometry x="10" y="42.5" width="180" height="107.5" as="geometry" />
        </mxCell>
        <mxCell id="H4TN52KVMqeMWF24uuQp-26" style="edgeStyle=orthogonalEdgeStyle;rounded=0;orthogonalLoop=1;jettySize=auto;html=1;exitX=1;exitY=1;exitDx=0;exitDy=0;entryX=0;entryY=0;entryDx=0;entryDy=0;" edge="1" parent="1" source="H4TN52KVMqeMWF24uuQp-8" target="H4TN52KVMqeMWF24uuQp-5">
          <mxGeometry relative="1" as="geometry" />
        </mxCell>
        <mxCell id="H4TN52KVMqeMWF24uuQp-8" value="&lt;font style=&quot;font-size: 15px;&quot;&gt;Booking&lt;/font&gt;" style="swimlane;whiteSpace=wrap;html=1;rounded=1;strokeColor=default;startSize=20;" vertex="1" parent="1">
          <mxGeometry x="330" y="320" width="220" height="210" as="geometry" />
        </mxCell>
        <mxCell id="H4TN52KVMqeMWF24uuQp-9" value="&lt;font style=&quot;font-size: 17px;&quot;&gt;booking_id UUID&lt;/font&gt;&lt;div&gt;&lt;font style=&quot;font-size: 17px;&quot;&gt;property_id UUID&lt;/font&gt;&lt;/div&gt;&lt;div&gt;&lt;font style=&quot;font-size: 17px;&quot;&gt;user_id UUID&lt;/font&gt;&lt;/div&gt;&lt;div&gt;&lt;font style=&quot;font-size: 17px;&quot;&gt;end_date DATE&lt;/font&gt;&lt;/div&gt;&lt;div&gt;&lt;font style=&quot;font-size: 17px;&quot;&gt;total_price DECIMAL&lt;/font&gt;&lt;/div&gt;&lt;div&gt;&lt;font style=&quot;font-size: 17px;&quot;&gt;status ENUM&lt;/font&gt;&lt;/div&gt;&lt;div&gt;&lt;font style=&quot;font-size: 17px;&quot;&gt;created_at TIMESTAMP&lt;/font&gt;&lt;/div&gt;" style="text;html=1;align=left;verticalAlign=middle;whiteSpace=wrap;rounded=0;" vertex="1" parent="H4TN52KVMqeMWF24uuQp-8">
          <mxGeometry x="10" y="72.5" width="220" height="85" as="geometry" />
        </mxCell>
        <mxCell id="H4TN52KVMqeMWF24uuQp-25" style="edgeStyle=orthogonalEdgeStyle;rounded=0;orthogonalLoop=1;jettySize=auto;html=1;entryX=0.5;entryY=0;entryDx=0;entryDy=0;exitX=0.5;exitY=1;exitDx=0;exitDy=0;" edge="1" parent="1" source="H4TN52KVMqeMWF24uuQp-3" target="H4TN52KVMqeMWF24uuQp-4">
          <mxGeometry relative="1" as="geometry">
            <mxPoint x="180" y="260" as="sourcePoint" />
          </mxGeometry>
        </mxCell>
      </root>
    </mxGraphModel>
  </diagram>
</mxfile>
